<svg width="494" height="762" viewBox="0 0 494 762" fill="none" xmlns="http://www.w3.org/2000/svg">
<path d="M425.177 544.785H385.734V754.472H425.177V544.785Z" fill="#C6BBC8"/>
<path d="M463.629 586.956H418.536V754.472H463.629V586.956Z" fill="#C6BBC8"/>
<path d="M471.599 606.721H463.629V612.035H471.599V606.721Z" fill="#C6BBC8"/>
<path d="M34.4958 585.379H28.9344V590.693H34.4958V585.379Z" fill="#C6BBC8"/>
<path d="M459.148 658.812H445.776V664.125H459.148V658.812Z" fill="#C6BBC8"/>
<path d="M445.776 632.988H431.447V638.301H445.776V632.988Z" fill="#C6BBC8"/>
<path d="M442.977 610.937H427.125V616.251H442.977V610.937Z" fill="#C6BBC8"/>
<path d="M118.626 514.339V592.925H36.391L36.2848 592.96L36.1608 593.031L36.267 592.925L109.345 523.194L118.626 514.339Z" fill="#C6BBC8"/>
<path d="M109.362 539.666V592.925H53.5533L55.413 591.136L63.5072 583.431L78.3495 569.262L86.4259 561.558L101.268 547.388L109.362 539.666Z" fill="#E8E1EC"/>
<path d="M118.644 488.887V501.445L109.345 510.318L22.8595 592.925H10.0186V592.624L109.345 497.743L118.644 488.887Z" fill="white"/>
<path d="M118.644 501.444V514.32L118.626 514.338L109.345 523.194L36.3911 592.924L36.3379 593.066L36.2671 592.924H22.8594L109.345 510.318L118.644 501.444Z" fill="#E8E1EC"/>
<path d="M55.4131 584.228V592.924H63.1353L63.5073 592.535V576.098L55.4131 584.228ZM78.3496 561.203V577.621L86.426 569.51V553.126L78.3496 561.203ZM101.268 538.284V554.844L105.838 550.735L109.38 547.6V530.367L101.268 538.284Z" fill="#E8E1EC"/>
<path d="M118.643 488.869V514.32L118.626 514.338L109.362 523.194V497.742L118.643 488.869Z" fill="#C6BBC8"/>
<path d="M458.068 592.925H375.709V514.339L384.972 523.177L458.068 592.925Z" fill="#C6BBC8"/>
<path d="M440.781 592.925H384.972V539.666L393.066 547.388L407.891 561.522L415.985 569.262L430.828 583.431L438.922 591.136L440.781 592.925Z" fill="#F6F1F7"/>
<path d="M471.458 592.924H457.944L384.972 523.194L375.709 514.338L375.691 514.32V501.444L384.972 510.318L471.458 592.924Z" fill="#F6F1F7"/>
<path d="M430.828 576.099V592.5L431.199 592.889H438.922V584.193L430.828 576.099ZM407.891 553.162V569.545L415.985 577.657V561.239L407.891 553.162ZM384.972 530.243V547.477L388.515 550.612L393.084 554.721V538.32L384.972 530.243Z" fill="#F6F1F7"/>
<path d="M375.691 488.869V514.32L375.709 514.338L384.972 523.194V497.742L375.691 488.869Z" fill="#C6BBC8"/>
<path d="M284.672 265.774H268.908V305.837H284.672V265.774Z" fill="white"/>
<path d="M225.444 265.774H209.681V305.837H225.444V265.774Z" fill="#C6BBC8"/>
<path d="M268.89 265.774H225.426V305.837H268.89V265.774Z" fill="#E8E1EC"/>
<path d="M268.89 278.137H225.409V278.633H268.89V278.137Z" fill="#C6BBC8"/>
<path d="M268.89 287.33H225.409V287.826H268.89V287.33Z" fill="#C6BBC8"/>
<path d="M268.89 296.521H225.409V297.017H268.89V296.521Z" fill="#C6BBC8"/>
<path d="M268.908 265.774H209.681V272.664H268.908V265.774Z" fill="#C6BBC8"/>
<path d="M284.672 265.774H268.908V272.664H284.672V265.774Z" fill="#F6F1F7"/>
<path d="M268.908 301.817H209.681V305.82H268.908V301.817Z" fill="#C6BBC8"/>
<path d="M284.672 301.817H268.908V305.82H284.672V301.817Z" fill="#F6F1F7"/>
<path d="M259.557 295.281V305.908H234.76V295.281C234.757 291.247 235.928 287.299 238.129 283.918C240.33 280.538 243.468 277.87 247.158 276.241C250.851 277.868 253.989 280.535 256.191 283.916C258.393 287.298 259.562 291.247 259.557 295.281Z" fill="#C6BBC8"/>
<path d="M284.672 325.657H268.908V382.688H284.672V325.657Z" fill="white"/>
<path d="M225.444 325.657H209.681V382.688H225.444V325.657Z" fill="#C6BBC8"/>
<path d="M268.89 325.657H225.426V382.688H268.89V325.657Z" fill="#E8E1EC"/>
<path d="M268.89 338.285H225.409V338.781H268.89V338.285Z" fill="#C6BBC8"/>
<path d="M268.89 349.266H225.409V349.762H268.89V349.266Z" fill="#C6BBC8"/>
<path d="M268.89 360.248H225.409V360.744H268.89V360.248Z" fill="#C6BBC8"/>
<path d="M268.908 325.657H209.681V332.547H268.908V325.657Z" fill="#C6BBC8"/>
<path d="M284.672 325.657H268.908V332.547H284.672V325.657Z" fill="#F6F1F7"/>
<path d="M259.557 355.164V382.688H234.76V355.164C234.757 351.13 235.928 347.182 238.129 343.801C240.33 340.421 243.468 337.753 247.158 336.124C250.851 337.751 253.989 340.418 256.191 343.799C258.393 347.181 259.562 351.13 259.557 355.164Z" fill="#C6BBC8"/>
<path d="M248.93 336.992C245.703 338.79 243.016 341.418 241.148 344.604C239.279 347.79 238.297 351.418 238.303 355.111V382.688H234.76V355.164C234.757 351.13 235.928 347.182 238.129 343.801C240.33 340.421 243.468 337.753 247.158 336.124C247.768 336.374 248.359 336.664 248.93 336.992Z" fill="#F6F1F7"/>
<path d="M283.662 245.937H264.835L247.158 100.543L282.617 241.775L283.662 245.937Z" fill="white"/>
<path d="M247.158 100.543L229.5 245.937H210.672L211.717 241.775L247.158 100.543Z" fill="#C6BBC8"/>
<path d="M264.835 245.937H229.5L247.158 100.543L264.835 245.937Z" fill="#E8E1EC"/>
<path d="M251.144 133.044H243.138V133.54H251.144V133.044Z" fill="#C6BBC8"/>
<path d="M252.277 142.661H242.004V143.157H252.277V142.661Z" fill="#C6BBC8"/>
<path d="M253.393 152.279H240.853V152.775H253.393V152.279Z" fill="#C6BBC8"/>
<path d="M254.527 161.896H239.72V162.391H254.527V161.896Z" fill="#C6BBC8"/>
<path d="M255.642 171.495H238.568V171.991H255.642V171.495Z" fill="#C6BBC8"/>
<path d="M256.776 181.113H237.435V181.609H256.776V181.113Z" fill="#C6BBC8"/>
<path d="M257.892 190.731H236.284V191.227H257.892V190.731Z" fill="#C6BBC8"/>
<path d="M259.025 200.33H235.15V200.826H259.025V200.33Z" fill="#C6BBC8"/>
<path d="M260.141 209.947H233.999V210.443H260.141V209.947Z" fill="#C6BBC8"/>
<path d="M261.274 219.565H232.865V220.061H261.274V219.565Z" fill="#C6BBC8"/>
<path d="M262.39 229.182H231.714V229.678H262.39V229.182Z" fill="#C6BBC8"/>
<path d="M263.524 238.782H230.58V239.278H263.524V238.782Z" fill="#C6BBC8"/>
<path d="M293.386 245.938H268.891V254.156H293.386V245.938Z" fill="white"/>
<path d="M229.854 245.938H200.949V254.156H229.854V245.938Z" fill="#C6BBC8"/>
<path d="M273.974 245.938H220.343V254.156H273.974V245.938Z" fill="#E8E1EC"/>
<path d="M284.742 265.774H264.835L268.89 254.138H293.386L284.742 265.774Z" fill="#E8E1EC"/>
<path d="M233.095 265.774H209.592L200.949 254.138H229.854L233.095 265.774Z" fill="#C6BBC8"/>
<path d="M268.961 265.774H225.373L220.343 254.138H273.992L268.961 265.774Z" fill="#C6BBC8"/>
<path d="M293.386 305.821H268.891V314.039H293.386V305.821Z" fill="white"/>
<path d="M229.854 305.821H200.949V314.039H229.854V305.821Z" fill="#C6BBC8"/>
<path d="M273.974 305.821H220.343V314.039H273.974V305.821Z" fill="#E8E1EC"/>
<path d="M284.742 325.657H264.835L268.89 314.038H293.386L284.742 325.657Z" fill="#E8E1EC"/>
<path d="M233.095 325.657H209.592L200.949 314.038H229.854L233.095 325.657Z" fill="#C6BBC8"/>
<path d="M268.961 325.657H225.373L220.343 314.038H273.992L268.961 325.657Z" fill="#C6BBC8"/>
<path d="M283.662 245.937H210.672L211.717 241.775H282.617L283.662 245.937Z" fill="#C6BBC8"/>
<path d="M248.487 0.4198H242.075V88.216H248.487V0.4198Z" fill="#C6BBC8"/>
<path d="M221.937 24.1529V30.4229L268.607 30.4229V24.1529L221.937 24.1529Z" fill="#C6BBC8"/>
<path d="M252.259 0.4198H245.848V88.216H252.259V0.4198Z" fill="#E8E1EC"/>
<path d="M252.259 0.4198H249.833V88.216H252.259V0.4198Z" fill="white"/>
<path d="M225.727 24.1712V30.441L272.397 30.441V24.1712L225.727 24.1712Z" fill="#E8E1EC"/>
<path d="M225.727 24.153V26.2075H245.883V24.153H225.727Z" fill="white"/>
<path d="M249.833 24.1702V26.2247H272.38V24.1702H249.833Z" fill="white"/>
<path d="M247.123 90.3415C253.628 90.3415 258.901 89.1679 258.901 87.7202C258.901 86.2725 253.628 85.0989 247.123 85.0989C240.618 85.0989 235.345 86.2725 235.345 87.7202C235.345 89.1679 240.618 90.3415 247.123 90.3415Z" fill="#E8E1EC"/>
<path d="M258.884 87.5957H235.345V92.98H258.884V87.5957Z" fill="#E8E1EC"/>
<path d="M258.884 92.9797C258.884 94.4321 253.57 95.6187 247.123 95.6187C240.676 95.6187 235.345 94.4321 235.345 92.9797C235.345 91.5274 240.658 90.3584 247.123 90.3584C253.588 90.3584 258.884 91.5274 258.884 92.9797Z" fill="#C6BBC8"/>
<path d="M250.736 92.2542H243.492V110.409H250.736V92.2542Z" fill="#C6BBC8"/>
<path d="M250.754 109.151H249.532C248.879 109.151 248.253 108.892 247.791 108.43C247.329 107.968 247.07 107.342 247.07 106.689V96.3102C247.07 95.6573 247.329 95.0311 247.791 94.5694C248.253 94.1077 248.879 93.8483 249.532 93.8483H250.754V109.151Z" fill="white"/>
<path d="M239.029 107.167V121.23L235.682 118.326L231.856 107.167H239.029Z" fill="#C6BBC8"/>
<path d="M239.029 118.326V121.23L235.681 118.326H239.029Z" fill="#C6BBC8"/>
<path d="M262.479 107.167L258.653 118.326L257.803 119.052L255.306 121.23V107.167H262.479Z" fill="white"/>
<path d="M257.803 107.167V119.052L255.306 121.23V107.167H257.803Z" fill="#E8E1EC"/>
<path d="M255.306 118.326V121.23L258.653 118.326H255.306Z" fill="#E8E1EC"/>
<path d="M256.28 105.449H238.073V123.001H256.28V105.449Z" fill="#C6BBC8"/>
<path d="M256.28 105.449H243.492V123.001H256.28V105.449Z" fill="#E8E1EC"/>
<path d="M256.28 105.449H250.594V123.001H256.28V105.449Z" fill="white"/>
<path d="M256.28 123.002H238.073L240.499 127.129H253.836L256.28 123.002Z" fill="#C6BBC8"/>
<path d="M254.243 223.904V232.158H239.72V223.904C239.722 221.55 240.41 219.248 241.7 217.279C242.99 215.31 244.825 213.76 246.981 212.817C249.138 213.76 250.973 215.31 252.263 217.279C253.553 219.248 254.241 221.55 254.243 223.904Z" fill="#C6BBC8"/>
<path d="M284.654 265.774H282.883V305.837H284.654V265.774Z" fill="#C6BBC8"/>
<path d="M280.828 241.775L252.1 127.341L253.818 126.916L282.617 241.775H280.828Z" fill="#C6BBC8"/>
<path d="M293.386 245.938H291.615V254.156H293.386V245.938Z" fill="#C6BBC8"/>
<path d="M293.386 305.821H291.615V314.039H293.386V305.821Z" fill="#C6BBC8"/>
<path d="M284.654 325.657H282.883V382.688H284.654V325.657Z" fill="#C6BBC8"/>
<path d="M80.5102 531.2H413.824L247.158 372.026L80.5102 531.2Z" fill="#C6BBC8"/>
<path d="M103.96 508.813L247.158 372.026L390.374 508.813H103.96Z" fill="#C6BBC8"/>
<path d="M124.736 508.813L247.158 391.881L369.598 508.813H124.736Z" fill="#E8E1EC"/>
<path d="M259.149 400.542H235.15V401.038H259.149V400.542Z" fill="#C6BBC8"/>
<path d="M266.163 407.342H228.154V407.838H266.163V407.342Z" fill="#C6BBC8"/>
<path d="M273.159 414.162H221.158V414.658H273.159V414.162Z" fill="#C6BBC8"/>
<path d="M280.173 420.963H214.162V421.458H280.173V420.963Z" fill="#C6BBC8"/>
<path d="M287.169 427.764H207.148V428.26H287.169V427.764Z" fill="#C6BBC8"/>
<path d="M294.165 434.583H200.152V435.079H294.165V434.583Z" fill="#C6BBC8"/>
<path d="M301.179 441.384H193.156V441.88H301.179V441.384Z" fill="#C6BBC8"/>
<path d="M308.157 448.186H186.142V448.682H308.157V448.186Z" fill="#C6BBC8"/>
<path d="M315.171 455.005H179.146V455.501H315.171V455.005Z" fill="#C6BBC8"/>
<path d="M322.167 461.806H172.15V462.302H322.167V461.806Z" fill="#C6BBC8"/>
<path d="M329.163 468.607H165.136V469.103H329.163V468.607Z" fill="#C6BBC8"/>
<path d="M336.177 475.426H158.14V475.922H336.177V475.426Z" fill="#C6BBC8"/>
<path d="M343.173 482.227H151.144V482.723H343.173V482.227Z" fill="#C6BBC8"/>
<path d="M350.187 489.028H144.148V489.524H350.187V489.028Z" fill="#C6BBC8"/>
<path d="M357.165 495.847H137.134V496.343H357.165V495.847Z" fill="#C6BBC8"/>
<path d="M364.179 502.649H130.138V503.144H364.179V502.649Z" fill="#C6BBC8"/>
<path d="M413.824 505.748V518.323L388.568 494.2L247.158 359.132V346.574L388.568 481.642L413.824 505.748Z" fill="white"/>
<path d="M247.158 346.574V372.026L105.767 507.094L80.5102 531.199V505.748L105.767 481.642L247.158 346.574Z" fill="white"/>
<path d="M413.824 518.323V531.199L247.158 372.025V359.131L413.824 518.323Z" fill="#E8E1EC"/>
<path d="M247.158 359.131V372.025L80.5102 531.199V518.323L247.158 359.131Z" fill="#F6F1F7"/>
<path d="M217.81 481.962V476.648C217.81 459.964 229.429 444.484 248.469 435.788C267.509 444.484 279.11 459.964 279.11 476.648V481.962H217.81Z" fill="#C6BBC8"/>
<path d="M221.547 482.015C221.406 465.826 231.306 450.825 247.406 442.872L248.434 442.376L249.479 442.872C265.614 450.647 275.532 465.649 275.373 482.032H221.547V482.015Z" fill="#F6F1F7"/>
<path d="M226.347 482.015C226.223 468.713 234.371 456.386 247.601 449.851L248.451 449.443L249.301 449.851C262.567 456.227 270.715 468.572 270.555 482.033H226.276L226.347 482.015Z" fill="#B3A9B5"/>
<path d="M267.048 481.642H229.695V481.058C229.757 477.969 230.301 474.91 231.306 471.989C231.715 470.776 232.206 469.593 232.776 468.447C233.881 466.181 235.248 464.053 236.85 462.106L237.151 461.77C237.884 460.895 238.664 460.061 239.489 459.272C241.248 457.561 243.184 456.041 245.263 454.738C246.266 454.096 247.3 453.505 248.363 452.967C259.556 458.617 266.641 469.049 267.048 480.455V481.642Z" fill="#F6F1F7"/>
<path d="M267.048 480.455V481.589H257.927L239.489 459.201C241.248 457.49 243.184 455.97 245.263 454.667L267.048 480.455Z" fill="white"/>
<path d="M253.57 481.643H230.173L229.695 481.058C229.757 477.97 230.301 474.91 231.306 471.99C231.715 470.777 232.206 469.594 232.776 468.448C233.881 466.182 235.248 464.054 236.85 462.107L237.151 461.77L253.57 481.643Z" fill="white"/>
<path d="M256.103 481.643H253.145C253.171 475.059 255.272 468.65 259.149 463.329H260.92V465.755C257.79 470.463 256.114 475.989 256.103 481.643Z" fill="#C6BBC8"/>
<path d="M248.93 453.321L248.257 452.967L247.619 453.321C242.328 455.916 237.85 459.912 234.671 464.874C231.492 469.836 229.735 475.574 229.589 481.465V481.996H230.864V481.429C230.988 470.342 237.594 460.176 248.257 454.472C259.008 460.14 265.667 470.413 265.685 481.571V481.979H266.978V481.607C266.85 475.691 265.099 469.924 261.916 464.936C258.733 459.947 254.241 455.93 248.93 453.321Z" fill="white"/>
<path d="M267.048 481.625V481.997H265.755V481.59C265.755 470.467 259.078 460.159 248.327 454.491V452.985L249 453.34C254.311 455.948 258.804 459.966 261.987 464.954C265.17 469.942 266.921 475.709 267.048 481.625Z" fill="#C6BBC8"/>
<path d="M243.51 481.642H240.57C240.624 474.74 242.939 468.046 247.159 462.585C248.719 460.53 250.501 458.653 252.472 456.988C253.246 457.539 253.991 458.13 254.704 458.759C252.821 460.335 251.122 462.117 249.638 464.072C245.724 469.099 243.571 475.272 243.51 481.642Z" fill="#C6BBC8"/>
<path d="M256.103 481.643H253.145C253.116 475.271 250.994 469.085 247.105 464.037C245.631 462.074 243.931 460.29 242.04 458.724V456.864L244.183 456.988C246.151 458.664 247.932 460.546 249.496 462.603C253.727 468.053 256.049 474.743 256.103 481.643Z" fill="#C6BBC8"/>
<path d="M254.65 481.661C254.527 474.91 252.236 468.377 248.115 463.028C246.374 460.735 244.364 458.66 242.128 456.847L244.271 456.971C246.244 458.641 248.026 460.524 249.585 462.586C253.538 467.678 255.838 473.859 256.174 480.297L254.65 481.661Z" fill="#B3A9B5"/>
<path d="M243.51 481.643H240.57C240.561 475.972 238.886 470.429 235.752 465.703V463.276H237.523C241.404 468.615 243.499 475.043 243.51 481.643Z" fill="#C6BBC8"/>
<path d="M267.226 481.996H229.447L230.917 480.349H265.756L267.226 481.996Z" fill="#B3A9B5"/>
<path d="M242.022 481.66C241.903 475.041 239.69 468.629 235.699 463.346H237.47C241.109 468.313 243.215 474.236 243.528 480.385L242.022 481.66Z" fill="#B3A9B5"/>
<path d="M260.938 465.773C257.784 470.491 256.102 476.039 256.103 481.713L254.579 481.217C254.609 475.217 256.503 469.374 259.999 464.498L260.867 463.4L260.938 465.773Z" fill="#B3A9B5"/>
<path d="M254.633 458.724C252.745 460.298 251.039 462.081 249.55 464.037C245.663 469.093 243.542 475.283 243.51 481.66L241.969 481.217C242.003 474.846 244.125 468.662 248.009 463.612C249.586 461.438 251.472 459.505 253.606 457.873L254.704 456.988L254.633 458.724Z" fill="#B3A9B5"/>
<path d="M259.149 463.329L260.867 463.364L259.999 464.445L259.149 463.329Z" fill="#C6BBC8"/>
<path d="M252.401 456.988H254.703L253.605 457.873L252.401 456.988Z" fill="#C6BBC8"/>
<path d="M285.256 476.666V482.086H279.128V476.666C279.031 468.174 276.15 459.948 270.927 453.251C265.014 445.653 257.294 439.655 248.469 435.805V430.031L251.427 431.377C268.253 439.046 279.942 451.816 283.821 466.127C284.768 469.56 285.25 473.105 285.256 476.666Z" fill="#B3A9B5"/>
<path d="M248.469 430.031V435.805L246.698 436.602L244.82 437.576C244.271 437.842 243.74 438.143 243.226 438.444C242.713 438.745 242.128 439.064 241.597 439.383L240.357 440.145L239.188 440.906C238.102 441.626 237.057 442.37 236.053 443.138L235.097 443.882L234.3 444.519L233.414 445.281L232.157 446.397L230.811 447.654L229.783 448.699C228.986 449.532 228.207 450.382 227.499 451.25L226.631 452.312C226.223 452.826 225.816 453.375 225.426 453.906L224.736 454.881C222.094 458.703 220.129 462.95 218.926 467.438C218.714 468.324 218.501 469.209 218.324 470.095C218.324 470.573 218.182 471.069 218.094 471.565C217.952 472.539 217.863 473.531 217.81 474.505C217.757 475.479 217.81 475.94 217.81 476.666V482.086H211.735V476.666C211.735 476.081 211.735 475.479 211.735 474.895C211.895 471.283 212.539 467.709 213.648 464.268C218.005 450.683 229.411 438.675 245.529 431.324L248.469 430.031Z" fill="white"/>
<path d="M272.078 502.897H210.194V508.813H272.078V502.897Z" fill="#E8E1EC"/>
<path d="M222.203 502.897H210.194V508.813H222.203V502.897Z" fill="#C6BBC8"/>
<path d="M284.14 502.897H272.079V508.813H284.14V502.897Z" fill="#B3A9B5"/>
<path d="M294.147 482.103H272.079V489.046H294.147V482.103Z" fill="white"/>
<path d="M227.322 482.103H200.187V489.046H227.322V482.103Z" fill="#C6BBC8"/>
<path d="M277.923 482.103H216.429V489.046H277.923V482.103Z" fill="#E8E1EC"/>
<path d="M284.229 502.897H267.42L272.079 489.064H294.147L284.229 502.897Z" fill="#E8E1EC"/>
<path d="M231.041 502.897H210.106L200.187 489.064H227.322L231.041 502.897Z" fill="#C6BBC8"/>
<path d="M272.167 502.897H222.167L216.429 489.064H277.906L272.167 502.897Z" fill="#C6BBC8"/>
<path d="M375.691 508.812H324.771V592.694H375.691V508.812Z" fill="white"/>
<path d="M169.564 508.812H118.643V592.694H169.564V508.812Z" fill="#C6BBC8"/>
<path d="M352.064 508.812H142.288V592.694H352.064V508.812Z" fill="#E8E1EC"/>
<path d="M352.046 535.911H142.271V536.407H352.046V535.911Z" fill="#C6BBC8"/>
<path d="M352.046 546.095H142.271V546.591H352.046V546.095Z" fill="#C6BBC8"/>
<path d="M352.046 556.262H142.271V556.758H352.046V556.262Z" fill="#C6BBC8"/>
<path d="M352.046 566.428H142.271V566.924H352.046V566.428Z" fill="#C6BBC8"/>
<path d="M352.046 576.612H142.271V577.108H352.046V576.612Z" fill="#C6BBC8"/>
<path d="M352.046 586.779H142.271V587.275H352.046V586.779Z" fill="#C6BBC8"/>
<path d="M375.673 515.613H118.643V529.481H375.673V515.613Z" fill="#C6BBC8"/>
<path d="M376.01 515.613H352.046V529.481H376.01V515.613Z" fill="#F6F1F7"/>
<path d="M390.374 508.83H327.197V519.386H390.374V508.83Z" fill="white"/>
<path d="M167.12 508.83H103.943V519.386H167.12V508.83Z" fill="#C6BBC8"/>
<path d="M335.663 508.83H158.654V519.386H335.663V508.83Z" fill="#B3A9B5"/>
<path d="M459.998 592.907H375.674V774.964H459.998V592.907Z" fill="white"/>
<path d="M118.679 592.907H34.3542V774.964H118.679V592.907Z" fill="#C6BBC8"/>
<path d="M375.673 592.907H118.661V774.982H375.673V592.907Z" fill="#E8E1EC"/>
<path d="M375.461 621.44H118.874V621.936H375.461V621.44Z" fill="#C6BBC8"/>
<path d="M375.461 631.306H118.874V631.802H375.461V631.306Z" fill="#C6BBC8"/>
<path d="M375.461 641.171H118.874V641.667H375.461V641.171Z" fill="#C6BBC8"/>
<path d="M375.461 651.018H118.874V651.514H375.461V651.018Z" fill="#C6BBC8"/>
<path d="M375.461 660.884H118.874V661.379H375.461V660.884Z" fill="#C6BBC8"/>
<path d="M375.461 670.749H118.874V671.245H375.461V670.749Z" fill="#C6BBC8"/>
<path d="M375.461 680.615H118.874V681.11H375.461V680.615Z" fill="#C6BBC8"/>
<path d="M375.709 604.26H118.626V613.01H375.709V604.26Z" fill="#C6BBC8"/>
<path d="M459.998 604.26H375.62V613.01H459.998V604.26Z" fill="#F6F1F7"/>
<path d="M484.299 592.694H379.677V604.331H484.299V592.694Z" fill="white"/>
<path d="M114.641 592.924H10.0186V604.561H114.641V592.924Z" fill="#C6BBC8"/>
<path d="M393.722 592.694H100.595V604.331H393.722V592.694Z" fill="#B3A9B5"/>
<path d="M208.547 774.964V690.391C208.547 668.943 223.478 649.053 247.955 637.877C272.415 649.053 287.346 668.943 287.346 690.391V774.964H208.547Z" fill="#C6BBC8"/>
<path d="M303.092 774.964V698.309C303.092 680.455 315.49 663.895 335.876 654.596C356.226 663.895 368.66 680.455 368.66 698.291V775.053L303.092 774.964Z" fill="#C6BBC8"/>
<path d="M127.234 774.964V698.308C127.234 680.455 139.632 663.894 160.018 654.614C180.368 663.894 192.784 680.455 192.784 698.308V775.017L127.234 774.964Z" fill="#C6BBC8"/>
<path d="M368.235 693.155H126.1V774.982H368.235V693.155Z" fill="#C6BBC8"/>
<path d="M58.654 647.122L56.8829 648.893C50.0108 655.464 44.8036 665.4 41.8812 676.93C40.2244 683.631 39.3507 690.502 39.2776 697.405V774.981H41.2081V698.414C41.2637 691.51 42.1377 684.638 43.8117 677.94C46.7342 666.409 51.9591 656.473 58.8311 649.902L60.2126 648.592L58.654 647.122Z" fill="#E8E1EC"/>
<path d="M97.3717 629.924L95.6005 631.695C88.7284 638.266 83.5212 648.202 80.5988 659.75C78.915 666.446 78.0408 673.32 77.9952 680.225V757.801H79.9081V681.216C79.9393 674.315 80.7895 667.443 82.4408 660.742C85.3632 649.229 90.5704 639.293 97.4425 632.722L98.8595 631.394L97.3717 629.924Z" fill="#E8E1EC"/>
<path d="M51.1268 704.436V700.433V698.308H52.6854V693.136H46.3447H32.4588H26.1181V698.308H27.6767V700.433V704.436H31.3253V763.699H27.6767V767.684V769.81H26.1181V774.981H32.4588H46.3447H52.6854V769.81H51.1268V767.684V763.699H47.4782V704.436H51.1268Z" fill="#C6BBC8"/>
<path d="M52.6857 693.136H34.3542V774.964H52.6857V693.136Z" fill="#C6BBC8"/>
<path d="M47.4785 709.466H43.6174V763.682H47.4785V709.466Z" fill="#E8E1EC"/>
<path d="M51.1267 700.451H45.5298V704.436H51.1267V700.451Z" fill="#E8E1EC"/>
<path d="M52.6856 693.136H46.3448V698.308H52.6856V693.136Z" fill="#E8E1EC"/>
<path d="M37.4534 715.099H36.2667V759.342H37.4534V715.099Z" fill="#E8E1EC"/>
<path d="M89.2776 693.136H70.9462V774.964H89.2776V693.136Z" fill="#C6BBC8"/>
<path d="M84.0881 709.466H80.227V763.682H84.0881V709.466Z" fill="#E8E1EC"/>
<path d="M87.7369 700.451H82.14V704.436H87.7369V700.451Z" fill="#E8E1EC"/>
<path d="M89.2954 693.136H82.9547V698.308H89.2954V693.136Z" fill="#E8E1EC"/>
<path d="M74.63 715.099H73.4434V759.342H74.63V715.099Z" fill="#E8E1EC"/>
<path d="M432.563 648.557L433.944 649.867C440.816 656.438 446.041 666.374 448.982 677.905C450.638 684.606 451.512 691.477 451.585 698.379V774.929H453.498V697.352C453.422 690.458 452.53 683.597 450.841 676.913C447.919 665.383 442.712 655.446 435.84 648.875L434.068 647.104L432.563 648.557Z" fill="#F6F1F7"/>
<path d="M393.864 631.872L395.263 633.2C402.135 639.771 407.342 649.707 410.264 661.22C411.948 667.916 412.822 674.79 412.868 681.695V758.244H414.799V680.667C414.735 673.764 413.862 666.892 412.195 660.193C409.273 648.645 404.048 638.709 397.176 632.138L395.404 630.366L393.864 631.872Z" fill="#F6F1F7"/>
<path d="M441.596 704.436V700.433V698.308H440.037V693.136H446.378H460.264H466.604V698.308H465.064V700.433V704.436H461.397V763.699H465.064V767.684V769.81H466.604V774.981H460.264H446.378H440.037V769.81H441.596V767.684V763.699H445.244V704.436H441.596Z" fill="white"/>
<path d="M440.055 774.981H458.387V693.154H440.055V774.981Z" fill="white"/>
<path d="M449.106 709.466H445.245V763.682H449.106V709.466Z" fill="#F6F1F7"/>
<path d="M447.193 700.451H441.596V704.436H447.193V700.451Z" fill="#F6F1F7"/>
<path d="M446.378 693.136H440.037V698.308H446.378V693.136Z" fill="#F6F1F7"/>
<path d="M456.456 715.099H455.269V759.342H456.456V715.099Z" fill="#F6F1F7"/>
<path d="M403.445 774.981H421.777V693.154H403.445V774.981Z" fill="white"/>
<path d="M412.513 709.466H408.652V763.682H412.513V709.466Z" fill="#F6F1F7"/>
<path d="M410.583 700.451H404.986V704.436H410.583V700.451Z" fill="#F6F1F7"/>
<path d="M409.786 693.136H403.445V698.308H409.786V693.136Z" fill="#F6F1F7"/>
<path d="M419.279 715.099H418.093V759.342H419.279V715.099Z" fill="#F6F1F7"/>
<path d="M335.096 647.086V654.507C315.082 663.646 302.755 679.817 302.348 697.351H294.466C294.642 690.194 296.505 683.179 299.903 676.877C306.014 665.347 316.924 655.393 331.288 648.84L335.096 647.086Z" fill="white"/>
<path d="M375.744 697.351H367.863C367.564 688.57 364.509 680.106 359.131 673.157C352.803 665.031 344.54 658.619 335.096 654.507V647.086L338.904 648.857C361.292 659.024 375.319 677.568 375.744 697.351Z" fill="#B3A9B5"/>
<path d="M294.466 690.39V697.351H286.584V690.39C286.456 679.472 282.755 668.896 276.046 660.281C268.434 650.522 258.504 642.82 247.158 637.876V630.454L250.966 632.226C272.592 642.073 287.612 658.492 292.606 676.894C293.823 681.29 294.448 685.829 294.466 690.39Z" fill="#B3A9B5"/>
<path d="M247.158 630.454V637.876L244.998 638.903C244.183 639.31 243.368 639.718 242.571 640.143C241.774 640.568 241.19 640.869 240.534 641.259C239.879 641.648 239.135 642.056 238.444 642.463L236.85 643.455C236.319 643.774 235.823 644.11 235.345 644.429C233.963 645.35 232.617 646.306 231.324 647.298C230.899 647.599 230.492 647.918 230.102 648.237L229.057 649.087L227.906 650.043L226.312 651.478L224.541 653.108L223.248 654.436C222.203 655.499 221.229 656.614 220.308 657.73C219.918 658.191 219.546 658.616 219.174 659.076C218.802 659.537 218.129 660.44 217.633 661.131L216.748 662.388C213.353 667.307 210.825 672.77 209.273 678.541C209.008 679.657 208.742 680.808 208.512 681.942C208.512 682.562 208.317 683.2 208.211 683.819C208.034 685.077 207.91 686.352 207.839 687.627C207.839 688.548 207.733 689.399 207.733 690.39V697.351H199.851V690.39C199.851 689.629 199.851 688.849 199.851 688.106C200.061 683.499 200.889 678.942 202.313 674.556C207.91 657.093 222.575 641.666 243.262 632.226L247.158 630.454Z" fill="white"/>
<path d="M159.238 647.122V654.543C139.224 663.682 126.897 679.87 126.472 697.387H118.59C118.783 690.232 120.645 683.221 124.028 676.912C130.156 665.382 141.048 655.428 155.43 648.875L159.238 647.122Z" fill="white"/>
<path d="M199.869 697.387H191.987C191.703 688.606 188.653 680.139 183.273 673.193C176.935 665.076 168.675 658.667 159.238 654.543V647.122L163.046 648.893C185.434 659.059 199.461 677.603 199.869 697.387Z" fill="#B3A9B5"/>
<path d="M126.259 704.436H122.398V770.022H126.259V704.436Z" fill="white"/>
<path d="M122.398 704.436H110.107V770.022H122.398V704.436Z" fill="#E8E1EC"/>
<path d="M122.416 704.436H113.968V770.022H122.416V704.436Z" fill="#F6F1F7"/>
<path d="M119.848 715.099H117.474V759.342H119.848V715.099Z" fill="#C6BBC8"/>
<path d="M129.908 697.246H124.311V704.436H129.908V697.246Z" fill="white"/>
<path d="M124.311 697.246H106.458V704.436H124.311V697.246Z" fill="#E8E1EC"/>
<path d="M124.311 697.246H112.055V704.436H124.311V697.246Z" fill="#F6F1F7"/>
<path d="M126.242 704.436H113.914V707.979H126.242V704.436Z" fill="#E8E1EC"/>
<path d="M126.242 704.436H122.398V707.979H126.242V704.436Z" fill="#F6F1F7"/>
<path d="M113.967 704.436H110.124V707.979H113.967V704.436Z" fill="#C6BBC8"/>
<path d="M129.926 697.246H106.458V700.434H129.926V697.246Z" fill="#C6BBC8"/>
<path d="M129.908 697.246H123.124V700.434H129.908V697.246Z" fill="#E8E1EC"/>
<path d="M131.467 693.136H125.126V698.308H131.467V693.136Z" fill="white"/>
<path d="M125.126 693.136H104.899V698.308H125.126V693.136Z" fill="#E8E1EC"/>
<path d="M125.126 693.136H111.24V698.308H125.126V693.136Z" fill="#F6F1F7"/>
<path d="M207.856 704.436H203.995V770.022H207.856V704.436Z" fill="white"/>
<path d="M203.995 704.436H191.703V770.022H203.995V704.436Z" fill="#E8E1EC"/>
<path d="M203.996 704.436H195.547V770.022H203.996V704.436Z" fill="#F6F1F7"/>
<path d="M201.445 715.099H199.072V759.342H201.445V715.099Z" fill="#C6BBC8"/>
<path d="M211.505 697.246H205.908V704.436H211.505V697.246Z" fill="white"/>
<path d="M205.908 697.246H188.055V704.436H205.908V697.246Z" fill="#E8E1EC"/>
<path d="M205.908 697.246H193.652V704.436H205.908V697.246Z" fill="#F6F1F7"/>
<path d="M207.839 704.436H195.512V707.979H207.839V704.436Z" fill="#E8E1EC"/>
<path d="M207.839 704.436H203.995V707.979H207.839V704.436Z" fill="#F6F1F7"/>
<path d="M195.564 704.436H191.721V707.979H195.564V704.436Z" fill="#C6BBC8"/>
<path d="M211.505 697.246H188.038V700.434H211.505V697.246Z" fill="#C6BBC8"/>
<path d="M211.505 697.246H204.722V700.434H211.505V697.246Z" fill="#E8E1EC"/>
<path d="M213.064 693.136H206.723V698.308H213.064V693.136Z" fill="white"/>
<path d="M206.723 693.136H186.496V698.308H206.723V693.136Z" fill="#E8E1EC"/>
<path d="M206.723 693.136H192.837V698.308H206.723V693.136Z" fill="#F6F1F7"/>
<path d="M302.649 704.436H298.787V770.022H302.649V704.436Z" fill="white"/>
<path d="M298.77 704.436H286.478V770.022H298.77V704.436Z" fill="#E8E1EC"/>
<path d="M298.787 704.436H290.339V770.022H298.787V704.436Z" fill="#F6F1F7"/>
<path d="M296.219 715.099H293.846V759.342H296.219V715.099Z" fill="#C6BBC8"/>
<path d="M306.28 697.246H300.683V704.436H306.28V697.246Z" fill="white"/>
<path d="M300.683 697.246H282.83V704.436H300.683V697.246Z" fill="#E8E1EC"/>
<path d="M300.683 697.246H288.426V704.436H300.683V697.246Z" fill="#F6F1F7"/>
<path d="M302.613 704.436H290.286V707.979H302.613V704.436Z" fill="#E8E1EC"/>
<path d="M302.631 704.436H298.787V707.979H302.631V704.436Z" fill="#F6F1F7"/>
<path d="M290.339 704.436H286.496V707.979H290.339V704.436Z" fill="#C6BBC8"/>
<path d="M306.298 697.246H282.83V700.434H306.298V697.246Z" fill="#C6BBC8"/>
<path d="M306.28 697.246H299.496V700.434H306.28V697.246Z" fill="#E8E1EC"/>
<path d="M307.838 693.136H301.497V698.308H307.838V693.136Z" fill="white"/>
<path d="M301.498 693.136H281.271V698.308H301.498V693.136Z" fill="#E8E1EC"/>
<path d="M301.498 693.136H287.612V698.308H301.498V693.136Z" fill="#F6F1F7"/>
<path d="M384.246 704.436H380.385V770.022H384.246V704.436Z" fill="white"/>
<path d="M380.367 704.436H368.075V770.022H380.367V704.436Z" fill="#E8E1EC"/>
<path d="M380.385 704.436H371.936V770.022H380.385V704.436Z" fill="#F6F1F7"/>
<path d="M377.816 715.099H375.443V759.342H377.816V715.099Z" fill="#C6BBC8"/>
<path d="M387.877 697.246H382.28V704.436H387.877V697.246Z" fill="white"/>
<path d="M382.28 697.246H364.427V704.436H382.28V697.246Z" fill="#E8E1EC"/>
<path d="M382.28 697.246H370.024V704.436H382.28V697.246Z" fill="#F6F1F7"/>
<path d="M384.21 704.436H371.883V707.979H384.21V704.436Z" fill="#E8E1EC"/>
<path d="M384.228 704.436H380.385V707.979H384.228V704.436Z" fill="#F6F1F7"/>
<path d="M371.936 704.436H368.093V707.979H371.936V704.436Z" fill="#C6BBC8"/>
<path d="M387.894 697.246H364.427V700.434H387.894V697.246Z" fill="#C6BBC8"/>
<path d="M387.877 697.246H381.094V700.434H387.877V697.246Z" fill="#E8E1EC"/>
<path d="M389.435 693.136H383.095V698.308H389.435V693.136Z" fill="white"/>
<path d="M383.095 693.136H362.868V698.308H383.095V693.136Z" fill="#E8E1EC"/>
<path d="M383.094 693.136H369.209V698.308H383.094V693.136Z" fill="#F6F1F7"/>
<path d="M279.039 694.766V774.964H214.357V694.766C214.357 694.235 214.357 693.703 214.357 693.172C214.817 674.309 226.578 656.987 245.423 647.706L246.662 647.104L247.902 647.706C266.783 656.775 278.596 674.097 279.039 693.172C279.039 693.686 279.039 694.235 279.039 694.766Z" fill="#F6F1F7"/>
<path d="M218.82 775.035V697.246C218.643 680.136 229.11 664.285 246.131 655.907L247.212 655.376L248.31 655.889C265.348 664.107 275.833 679.959 275.656 697.264V775.035H218.82Z" fill="#B3A9B5"/>
<path d="M271.069 696.803H223.035C223.035 696.555 223.035 696.289 223.035 696.041C223.099 692.072 223.792 688.138 225.09 684.387C225.622 682.824 226.255 681.298 226.985 679.817C228.434 676.91 230.217 674.182 232.298 671.688L232.688 671.227C233.627 670.129 234.618 669.049 235.681 668.021C237.946 665.833 240.434 663.886 243.102 662.212C244.398 661.384 245.734 660.622 247.105 659.927C261.451 667.189 270.502 680.614 271.104 695.35C271.051 695.811 271.069 696.289 271.069 696.803Z" fill="#F6F1F7"/>
<path d="M271.069 695.315V696.803H259.326L235.628 668.021C237.893 665.832 240.381 663.885 243.049 662.212L271.051 695.279L271.069 695.315Z" fill="white"/>
<path d="M253.73 696.802H223.62L223.018 696.041C223.081 692.072 223.775 688.138 225.072 684.387C225.605 682.824 226.238 681.298 226.967 679.817C228.417 676.91 230.2 674.182 232.281 671.687L232.671 671.227L253.73 696.802Z" fill="white"/>
<path d="M256.988 696.785H253.198C253.231 688.324 255.927 680.089 260.902 673.246H263.099V676.381C259.102 682.435 256.977 689.531 256.988 696.785Z" fill="#C6BBC8"/>
<path d="M247.849 660.388L246.999 659.927L246.167 660.388C231.997 667.738 223.142 681.535 222.982 696.572V697.246H224.629V696.537C224.789 682.262 233.29 669.137 246.999 661.893C260.814 669.173 269.351 682.421 269.387 696.696V697.228H271.069V696.75C271.016 681.73 262.125 667.773 247.849 660.388Z" fill="white"/>
<path d="M271.069 696.767V697.245H269.386V696.714C269.386 682.438 260.814 669.19 246.999 661.91V659.962L247.849 660.423C262.125 667.773 271.016 681.73 271.069 696.767Z" fill="#C6BBC8"/>
<path d="M240.8 696.785H237.01C237.044 687.922 239.987 679.316 245.387 672.29C247.38 669.641 249.668 667.229 252.206 665.099C252.206 665.099 254.402 666.657 255.058 667.313C252.638 669.342 250.452 671.635 248.54 674.149C243.555 680.646 240.837 688.596 240.8 696.785Z" fill="#C6BBC8"/>
<path d="M256.989 696.785H253.198C253.146 688.588 250.402 680.635 245.387 674.15C243.487 671.632 241.306 669.338 238.887 667.313L238.976 664.922L241.739 665.081C244.269 667.222 246.55 669.64 248.54 672.29C253.973 679.304 256.942 687.913 256.989 696.785Z" fill="#C6BBC8"/>
<path d="M255.111 696.803C254.954 688.132 252.011 679.742 246.715 672.875C244.481 669.919 241.894 667.249 239.011 664.922L241.774 665.081C244.295 667.231 246.576 669.648 248.575 672.29C253.658 678.851 256.607 686.813 257.024 695.103L255.111 696.803Z" fill="#B3A9B5"/>
<path d="M240.8 696.785H237.01C236.989 689.532 234.84 682.443 230.828 676.399V673.264H233.131C238.083 680.11 240.765 688.336 240.8 696.785Z" fill="#C6BBC8"/>
<path d="M271.282 697.228H222.716L224.612 695.121H269.386L271.282 697.228Z" fill="#B3A9B5"/>
<path d="M238.887 696.803C238.721 688.297 235.876 680.06 230.757 673.264H233.06C237.739 679.651 240.448 687.267 240.853 695.174L238.887 696.803Z" fill="#B3A9B5"/>
<path d="M263.187 676.399C259.153 682.44 256.996 689.539 256.988 696.803L255.04 696.183C255.067 688.466 257.5 680.95 262.001 674.681L263.117 673.264L263.187 676.399Z" fill="#B3A9B5"/>
<path d="M255.111 667.313C252.668 669.33 250.474 671.631 248.575 674.167C243.573 680.656 240.842 688.609 240.8 696.802L238.816 696.253C238.854 688.057 241.579 680.099 246.574 673.6C248.615 670.815 251.042 668.334 253.783 666.232L255.182 665.099L255.111 667.313Z" fill="#B3A9B5"/>
<path d="M260.903 673.246L263.099 673.299L262.001 674.681L260.903 673.246Z" fill="#C6BBC8"/>
<path d="M252.242 665.099H255.182L253.783 666.232L252.242 665.099Z" fill="#C6BBC8"/>
<path d="M244.094 699.53H223.425V735.466H244.094V699.53Z" fill="white"/>
<path d="M223.425 699.53L228.048 703.019L239.472 731.96L244.094 735.449V699.53H223.425Z" fill="#C6BBC8"/>
<path d="M242.128 701H225.391V733.962H242.128V701Z" fill="#F6F1F7"/>
<path d="M271.069 699.53H250.4V735.466H271.069V699.53Z" fill="white"/>
<path d="M250.4 699.53L255.023 703.019L266.429 731.96L271.069 735.449V699.53H250.4Z" fill="#C6BBC8"/>
<path d="M269.085 701H252.348V733.962H269.085V701Z" fill="#F6F1F7"/>
<path d="M244.094 737.539H223.425V750.115H244.094V737.539Z" fill="white"/>
<path d="M223.425 737.539L228.048 741.028L239.472 746.625L244.094 750.115V737.539H223.425Z" fill="#C6BBC8"/>
<path d="M242.128 739.027H225.391V748.627H242.128V739.027Z" fill="#F6F1F7"/>
<path d="M271.069 737.539H250.4V750.115H271.069V737.539Z" fill="white"/>
<path d="M250.4 737.539L255.023 741.028L266.429 746.625L271.069 750.115V737.539H250.4Z" fill="#C6BBC8"/>
<path d="M269.085 739.027H252.348V748.627H269.085V739.027Z" fill="#F6F1F7"/>
<path d="M244.094 752.204H223.425V771.776H244.094V752.204Z" fill="white"/>
<path d="M223.425 752.204L228.048 755.693L239.472 768.286L244.094 771.776V752.204H223.425Z" fill="#C6BBC8"/>
<path d="M242.128 753.675H225.391V770.289H242.128V753.675Z" fill="#F6F1F7"/>
<path d="M271.069 752.204H250.4V771.776H271.069V752.204Z" fill="white"/>
<path d="M250.4 752.204L255.023 755.693L266.429 768.286L271.069 771.776V752.204H250.4Z" fill="#C6BBC8"/>
<path d="M269.085 753.675H252.348V770.289H269.085V753.675Z" fill="#F6F1F7"/>
<path d="M247.778 697.228H247.176V775.035H247.778V697.228Z" fill="#C6BBC8"/>
<path d="M362.018 708.297V774.981H308.192V708.279C308.192 707.837 308.192 707.394 308.192 706.951C308.564 691.276 318.341 676.841 334.016 669.155L335.061 668.641L336.088 669.155C351.781 676.7 361.611 691.081 361.982 706.951C362.018 707.394 362.018 707.837 362.018 708.297Z" fill="#F6F1F7"/>
<path d="M311.841 775.034V710.352C311.699 696.182 320.396 682.952 334.547 675.974L335.451 675.531L336.372 675.974C350.541 682.793 359.255 695.97 359.113 710.369V775.034H311.841Z" fill="#B3A9B5"/>
<path d="M355.341 709.98H315.401C315.401 709.768 315.401 709.555 315.401 709.36C315.478 706.052 316.076 702.777 317.172 699.654C317.617 698.359 318.143 697.093 318.749 695.864C319.931 693.45 321.387 691.18 323.088 689.098L323.424 688.726C324.21 687.792 325.044 686.9 325.922 686.052C327.799 684.231 329.865 682.616 332.085 681.234C333.161 680.538 334.272 679.9 335.415 679.322C347.353 685.361 354.898 696.519 355.358 708.723C355.323 709.166 355.341 709.555 355.341 709.98Z" fill="#F6F1F7"/>
<path d="M355.34 708.758V709.98H345.581L325.886 686.052C327.763 684.231 329.829 682.616 332.05 681.234L355.323 708.723L355.34 708.758Z" fill="white"/>
<path d="M340.923 709.98H315.915L315.419 709.361C315.496 706.052 316.094 702.777 317.19 699.655C317.634 698.359 318.161 697.093 318.766 695.864C319.949 693.45 321.405 691.18 323.106 689.098L323.442 688.727L340.923 709.98Z" fill="white"/>
<path d="M343.633 709.98H340.48C340.523 702.972 342.773 696.155 346.91 690.498H348.681V693.083C345.38 698.1 343.625 703.975 343.633 709.98Z" fill="#C6BBC8"/>
<path d="M336.035 679.711L335.344 679.322L334.671 679.711C329.01 682.486 324.218 686.76 320.817 692.069C317.417 697.378 315.537 703.518 315.383 709.821V710.388H316.765V709.785C316.889 697.919 323.956 686.991 335.344 680.969C346.821 687.044 353.924 698.043 353.942 709.927V710.37H355.341V709.963C355.211 703.633 353.341 697.462 349.936 692.126C346.53 686.79 341.721 682.494 336.035 679.711Z" fill="white"/>
<path d="M355.341 709.944V710.352H353.941V709.909C353.941 698.024 346.857 687.026 335.344 680.951V679.339L336.035 679.728C341.715 682.509 346.521 686.799 349.927 692.128C353.332 697.458 355.205 703.621 355.341 709.944Z" fill="#C6BBC8"/>
<path d="M330.19 709.98H327.038C327.054 702.613 329.48 695.453 333.945 689.594C335.615 687.407 337.515 685.406 339.613 683.625C340.439 684.175 341.237 684.766 342.004 685.396C339.98 687.077 338.156 688.985 336.567 691.082C332.431 696.514 330.191 703.153 330.19 709.98Z" fill="#C6BBC8"/>
<path d="M343.633 709.981H340.481C340.437 703.192 338.173 696.605 334.034 691.224C332.447 689.126 330.629 687.213 328.614 685.521L328.702 683.555L330.987 683.679C333.09 685.467 334.991 687.481 336.655 689.683C341.141 695.502 343.593 702.633 343.633 709.981Z" fill="#C6BBC8"/>
<path d="M342.075 709.981C341.954 702.772 339.506 695.795 335.096 690.091C333.248 687.631 331.1 685.412 328.703 683.484L330.987 683.608C333.089 685.392 334.984 687.406 336.637 689.612C340.89 695.058 343.364 701.681 343.722 708.581L342.075 709.981Z" fill="#B3A9B5"/>
<path d="M330.19 709.98H327.038C327.019 703.941 325.227 698.041 321.884 693.012V690.408H323.796C327.92 696.104 330.156 702.948 330.19 709.98Z" fill="#C6BBC8"/>
<path d="M355.518 710.352H315.153L316.73 708.598H353.942L355.518 710.352Z" fill="#B3A9B5"/>
<path d="M328.632 709.98C328.476 702.94 326.116 696.126 321.884 690.498H323.796C327.687 695.811 329.94 702.146 330.279 708.723L328.632 709.98Z" fill="#B3A9B5"/>
<path d="M348.805 692.994C345.439 698.013 343.639 703.919 343.633 709.962L342.022 709.448C342.042 703.033 344.067 696.785 347.813 691.577L348.734 690.408L348.805 692.994Z" fill="#B3A9B5"/>
<path d="M342.074 685.467C340.046 687.143 338.221 689.051 336.637 691.152C332.484 696.554 330.213 703.166 330.172 709.98L328.525 709.519C328.562 702.705 330.833 696.091 334.99 690.692C336.683 688.374 338.699 686.311 340.976 684.564L342.145 683.625L342.074 685.467Z" fill="#B3A9B5"/>
<path d="M346.892 690.408L348.717 690.444L347.813 691.595L346.892 690.408Z" fill="#C6BBC8"/>
<path d="M339.684 683.625H342.146L340.977 684.564L339.684 683.625Z" fill="#C6BBC8"/>
<path d="M332.918 712.247H315.738V742.126H332.918V712.247Z" fill="white"/>
<path d="M315.738 712.247L319.581 715.152L329.074 739.222L332.918 742.126V712.247H315.738Z" fill="#C6BBC8"/>
<path d="M331.289 713.469H317.367V740.886H331.289V713.469Z" fill="#F6F1F7"/>
<path d="M355.34 712.247H338.16V742.126H355.34V712.247Z" fill="white"/>
<path d="M338.16 712.247L342.004 715.152L351.497 739.222L355.34 742.126V712.247H338.16Z" fill="#C6BBC8"/>
<path d="M353.711 713.469H339.79V740.886H353.711V713.469Z" fill="#F6F1F7"/>
<path d="M332.918 743.862H315.738V754.312H332.918V743.862Z" fill="white"/>
<path d="M315.738 743.862L319.581 746.767L329.074 751.408L332.918 754.312V743.862H315.738Z" fill="#C6BBC8"/>
<path d="M331.289 745.085H317.367V753.072H331.289V745.085Z" fill="#F6F1F7"/>
<path d="M355.34 743.862H338.16V754.312H355.34V743.862Z" fill="white"/>
<path d="M338.16 743.862L342.004 746.767L351.497 751.408L355.34 754.312V743.862H338.16Z" fill="#C6BBC8"/>
<path d="M353.711 745.085H339.79V753.072H353.711V745.085Z" fill="#F6F1F7"/>
<path d="M332.918 756.048H315.738V772.325H332.918V756.048Z" fill="white"/>
<path d="M315.738 756.048L319.581 758.952L329.074 769.42L332.918 772.325V756.048H315.738Z" fill="#C6BBC8"/>
<path d="M331.289 757.288H317.367V771.103H331.289V757.288Z" fill="#F6F1F7"/>
<path d="M355.34 756.048H338.16V772.325H355.34V756.048Z" fill="white"/>
<path d="M338.16 756.048L342.004 758.952L351.497 769.42L355.34 772.325V756.048H338.16Z" fill="#C6BBC8"/>
<path d="M353.711 757.288H339.79V771.103H353.711V757.288Z" fill="#F6F1F7"/>
<path d="M335.964 710.352H335.468V775.035H335.964V710.352Z" fill="#C6BBC8"/>
<path d="M186.142 708.297V774.981H132.316V708.279C132.316 707.837 132.316 707.394 132.316 706.951C132.706 691.276 142.483 676.841 158.158 669.155L159.185 668.641L160.23 669.155C175.922 676.7 185.752 691.081 186.106 706.951C186.142 707.394 186.142 707.837 186.142 708.297Z" fill="#F6F1F7"/>
<path d="M135.983 775.034V710.352C135.841 696.182 144.538 682.952 158.689 675.974L159.592 675.531L160.496 675.974C174.665 682.793 183.397 695.97 183.255 710.369V775.034H135.983Z" fill="#B3A9B5"/>
<path d="M179.483 709.98H139.543C139.543 709.768 139.543 709.555 139.543 709.36C139.611 706.051 140.209 702.774 141.314 699.654C141.743 698.353 142.27 697.086 142.89 695.864C144.067 693.447 145.523 691.176 147.23 689.098L147.566 688.726C148.346 687.793 149.174 686.9 150.046 686.052C152.884 683.381 156.079 681.116 159.539 679.322C171.495 685.361 179.022 696.519 179.5 708.723C179.465 709.166 179.483 709.555 179.483 709.98Z" fill="#F6F1F7"/>
<path d="M179.482 708.758V709.98H169.723L150.01 686.052C151.89 684.227 153.963 682.611 156.192 681.234L179.465 708.723L179.482 708.758Z" fill="white"/>
<path d="M165.065 709.98H140.057L139.561 709.361C139.629 706.051 140.227 702.775 141.332 699.655C141.761 698.353 142.288 697.086 142.908 695.864C144.084 693.447 145.541 691.176 147.248 689.098L147.584 688.727L165.065 709.98Z" fill="white"/>
<path d="M167.775 709.98H164.622C164.667 702.975 166.91 696.16 171.034 690.498H172.805V693.083C169.517 698.105 167.768 703.978 167.775 709.98Z" fill="#C6BBC8"/>
<path d="M160.177 679.711L159.468 679.322L158.778 679.711C153.118 682.487 148.329 686.762 144.931 692.071C141.534 697.38 139.658 703.519 139.508 709.821V710.388H140.889V709.785C141.031 697.919 148.098 686.991 159.486 680.969C170.963 687.044 178.083 698.043 178.101 709.927V710.37H179.5V709.963C179.365 703.633 177.491 697.462 174.082 692.126C170.674 686.79 165.863 682.495 160.177 679.711Z" fill="white"/>
<path d="M179.482 709.944V710.352H178.083V709.909C178.083 698.024 170.999 687.026 159.468 680.951V679.339L160.177 679.728C165.855 682.512 170.658 686.803 174.063 692.131C177.468 697.46 179.343 703.622 179.482 709.944Z" fill="#C6BBC8"/>
<path d="M154.315 709.98H151.162C151.205 702.603 153.662 695.443 158.158 689.594C159.828 687.407 161.728 685.406 163.826 683.625C164.646 684.176 165.438 684.767 166.199 685.396C164.181 687.078 162.362 688.985 160.779 691.082C156.605 696.499 154.333 703.141 154.315 709.98Z" fill="#C6BBC8"/>
<path d="M167.775 709.981H164.622C164.581 703.189 162.309 696.599 158.158 691.224C156.577 689.126 154.765 687.213 152.756 685.521V683.555L155.058 683.679C157.16 685.463 159.055 687.477 160.708 689.683C165.219 695.495 167.701 702.624 167.775 709.981Z" fill="#C6BBC8"/>
<path d="M166.217 709.981C166.081 702.774 163.634 695.802 159.238 690.091C157.379 687.635 155.226 685.416 152.827 683.484L155.129 683.608C157.231 685.392 159.126 687.406 160.779 689.612C165.026 695.061 167.499 701.682 167.864 708.581L166.217 709.981Z" fill="#B3A9B5"/>
<path d="M154.314 709.98H151.162C151.14 703.944 149.355 698.046 146.025 693.012V690.408H147.956C152.067 696.108 154.29 702.952 154.314 709.98Z" fill="#C6BBC8"/>
<path d="M179.66 710.352H139.277L140.854 708.598H178.084L179.66 710.352Z" fill="#B3A9B5"/>
<path d="M152.721 709.98C152.572 702.936 150.204 696.118 145.955 690.498H147.885C151.777 695.809 154.025 702.146 154.35 708.723L152.721 709.98Z" fill="#B3A9B5"/>
<path d="M172.929 692.994C169.576 698.019 167.783 703.922 167.775 709.962L166.146 709.448C166.174 703.035 168.198 696.789 171.937 691.577L172.876 690.408L172.929 692.994Z" fill="#B3A9B5"/>
<path d="M166.216 685.467C164.188 687.143 162.363 689.051 160.779 691.152C156.617 696.549 154.346 703.165 154.314 709.98L152.667 709.519C152.706 702.709 154.97 696.097 159.114 690.692C160.813 688.379 162.828 686.316 165.101 684.564L166.287 683.625L166.216 685.467Z" fill="#B3A9B5"/>
<path d="M171.034 690.408L172.859 690.444L171.938 691.595L171.034 690.408Z" fill="#C6BBC8"/>
<path d="M163.825 683.625H166.287L165.101 684.564L163.825 683.625Z" fill="#C6BBC8"/>
<path d="M157.042 712.247H139.862V742.126H157.042V712.247Z" fill="white"/>
<path d="M139.879 712.247L143.723 715.152L153.216 739.222L157.06 742.126V712.247H139.879Z" fill="#C6BBC8"/>
<path d="M155.43 713.469H141.509V740.886H155.43V713.469Z" fill="#F6F1F7"/>
<path d="M179.465 712.247H162.285V742.126H179.465V712.247Z" fill="white"/>
<path d="M162.285 712.247L166.146 715.152L175.639 739.222L179.483 742.126V712.247H162.285Z" fill="#C6BBC8"/>
<path d="M177.853 713.469H163.932V740.886H177.853V713.469Z" fill="#F6F1F7"/>
<path d="M157.042 743.862H139.862V754.312H157.042V743.862Z" fill="white"/>
<path d="M139.879 743.862L143.723 746.767L153.216 751.408L157.06 754.312V743.862H139.879Z" fill="#C6BBC8"/>
<path d="M155.43 745.085H141.509V753.072H155.43V745.085Z" fill="#F6F1F7"/>
<path d="M179.465 743.862H162.285V754.312H179.465V743.862Z" fill="white"/>
<path d="M162.285 743.862L166.146 746.767L175.639 751.408L179.483 754.312V743.862H162.285Z" fill="#C6BBC8"/>
<path d="M177.853 745.085H163.932V753.072H177.853V745.085Z" fill="#F6F1F7"/>
<path d="M157.042 756.048H139.862V772.325H157.042V756.048Z" fill="white"/>
<path d="M139.879 756.048L143.723 758.952L153.216 769.42L157.06 772.325V756.048H139.879Z" fill="#C6BBC8"/>
<path d="M155.43 757.288H141.509V771.103H155.43V757.288Z" fill="#F6F1F7"/>
<path d="M179.465 756.048H162.285V772.325H179.465V756.048Z" fill="white"/>
<path d="M162.285 756.048L166.146 758.952L175.639 769.42L179.483 772.325V756.048H162.285Z" fill="#C6BBC8"/>
<path d="M177.853 757.288H163.932V771.103H177.853V757.288Z" fill="#F6F1F7"/>
<path d="M160.106 710.352H159.61V775.035H160.106V710.352Z" fill="#C6BBC8"/>
<path d="M289.666 592.695V588.054C289.666 573.478 299.478 559.946 315.56 552.348C331.643 559.946 341.455 573.478 341.455 588.054V592.695H289.666Z" fill="#C6BBC8"/>
<path d="M295.83 592.694C295.724 580.809 302.915 569.793 314.799 563.965L315.561 563.594L316.322 563.965C328.171 569.669 335.451 580.685 335.327 592.711H295.83V592.694Z" fill="#F6F1F7"/>
<path d="M299.124 592.694C299.124 582.793 305.093 573.618 314.941 568.765L315.561 568.464L316.198 568.765C326.064 573.512 332.139 582.686 332.032 592.711H299.124V592.694Z" fill="#B3A9B5"/>
<path d="M329.411 592.429H301.604C301.595 592.281 301.595 592.133 301.604 591.986C301.648 589.689 302.049 587.412 302.79 585.238C303.102 584.336 303.468 583.455 303.889 582.599C304.713 580.916 305.729 579.335 306.917 577.887L307.148 577.622C307.697 576.984 308.263 576.364 308.919 575.762C310.228 574.494 311.671 573.371 313.223 572.415C313.965 571.93 314.734 571.487 315.525 571.086C319.458 572.941 322.822 575.818 325.264 579.417C327.707 583.015 329.139 587.203 329.411 591.543C329.393 591.844 329.411 592.127 329.411 592.429Z" fill="#F6F1F7"/>
<path d="M329.411 591.561V592.429H322.61L308.901 575.762C310.21 574.494 311.653 573.371 313.205 572.415L329.393 591.543L329.411 591.561Z" fill="white"/>
<path d="M319.369 592.429H302.064L301.71 591.986C301.755 589.689 302.155 587.413 302.897 585.238C303.208 584.336 303.575 583.455 303.995 582.599C304.819 580.917 305.835 579.336 307.024 577.888L307.254 577.622L319.369 592.429Z" fill="white"/>
<path d="M321.264 592.41H319.068C319.089 587.515 320.651 582.749 323.531 578.79H324.806V580.561C322.486 584.077 321.254 588.198 321.264 592.41Z" fill="#C6BBC8"/>
<path d="M315.968 571.352L315.489 571.086L315.011 571.352C311.075 573.282 307.742 576.254 305.375 579.945C303.008 583.635 301.698 587.904 301.586 592.287V592.677H302.542V592.251C302.686 588.051 303.965 583.968 306.245 580.438C308.525 576.907 311.72 574.061 315.489 572.202C319.279 574.063 322.489 576.924 324.771 580.476C327.052 584.029 328.32 588.137 328.437 592.358V592.659H329.411V592.375C329.309 587.976 328.002 583.689 325.632 579.982C323.261 576.275 319.918 573.29 315.968 571.352Z" fill="white"/>
<path d="M329.411 592.393V592.676H328.437V592.375C328.32 588.155 327.053 584.046 324.771 580.494C322.489 576.942 319.28 574.08 315.49 572.22V571.104L315.968 571.369C319.919 573.307 323.261 576.293 325.632 580C328.002 583.707 329.31 587.994 329.411 592.393Z" fill="#C6BBC8"/>
<path d="M311.894 592.411H309.698C309.724 587.282 311.436 582.303 314.569 578.242C315.727 576.712 317.051 575.316 318.518 574.079C318.518 574.079 319.794 574.983 320.166 575.355C318.766 576.535 317.501 577.865 316.393 579.322C313.501 583.075 311.921 587.673 311.894 592.411Z" fill="#C6BBC8"/>
<path d="M321.264 592.411H319.067C319.046 587.672 317.465 583.072 314.569 579.322C313.475 577.853 312.208 576.521 310.796 575.354V573.973L312.39 574.061C313.857 575.299 315.176 576.702 316.322 578.241C319.486 582.291 321.223 587.272 321.264 592.411Z" fill="#C6BBC8"/>
<path d="M320.183 592.428C320.09 587.408 318.382 582.551 315.313 578.578C314.026 576.866 312.533 575.319 310.867 573.973L312.461 574.061C313.923 575.304 315.242 576.706 316.393 578.241C319.334 582.036 321.04 586.642 321.281 591.437L320.183 592.428Z" fill="#B3A9B5"/>
<path d="M311.894 592.411H309.698C309.699 588.217 308.467 584.115 306.156 580.615V578.844H307.484C310.333 582.796 311.875 587.539 311.894 592.411Z" fill="#C6BBC8"/>
<path d="M329.535 592.677H301.427L302.525 591.455H328.437L329.535 592.677Z" fill="#B3A9B5"/>
<path d="M310.778 592.429C310.695 587.506 309.052 582.737 306.085 578.809H307.413C310.125 582.504 311.695 586.913 311.93 591.49L310.778 592.429Z" fill="#B3A9B5"/>
<path d="M324.859 580.615C322.537 584.116 321.304 588.227 321.317 592.429L320.183 592.057C320.211 587.605 321.622 583.273 324.221 579.659L324.859 578.844V580.615Z" fill="#B3A9B5"/>
<path d="M320.165 575.355C318.762 576.53 317.496 577.861 316.393 579.322C313.499 583.08 311.918 587.685 311.894 592.429L310.743 592.11C310.767 587.366 312.347 582.762 315.242 579.003C316.415 577.387 317.817 575.949 319.404 574.735L320.219 574.079L320.165 575.355Z" fill="#B3A9B5"/>
<path d="M323.531 578.79L324.806 578.826L324.169 579.623L323.531 578.79Z" fill="#C6BBC8"/>
<path d="M318.518 574.079H320.219L319.404 574.735L318.518 574.079Z" fill="#C6BBC8"/>
<path d="M315.578 552.241V558.227C300.01 565.578 290.428 578.596 290.091 592.694H283.963C284.104 586.953 285.552 581.32 288.196 576.222C293.653 566.204 302.263 558.266 312.691 553.64L315.578 552.241Z" fill="white"/>
<path d="M347.193 592.693H341.03C340.817 585.658 338.449 578.857 334.246 573.211C329.373 566.717 322.94 561.557 315.543 558.209V552.223L318.5 553.622C335.964 561.928 346.874 576.771 347.193 592.693Z" fill="#B3A9B5"/>
<path d="M152.862 592.695V588.054C152.862 573.478 162.674 559.946 178.756 552.348C194.838 559.946 204.651 573.478 204.651 588.054V592.695H152.862Z" fill="#C6BBC8"/>
<path d="M159.008 592.694C158.884 580.809 166.092 569.793 177.977 563.965L178.738 563.594L179.5 563.965C191.349 569.669 198.629 580.685 198.505 592.711H159.008V592.694Z" fill="#F6F1F7"/>
<path d="M162.302 592.694C162.214 582.793 168.271 573.618 178.119 568.765L178.738 568.464L179.376 568.765C189.241 573.512 195.317 582.686 195.21 592.711H162.302V592.694Z" fill="#B3A9B5"/>
<path d="M192.589 592.428H164.782C164.773 592.281 164.773 592.133 164.782 591.986C164.818 589.688 165.218 587.41 165.969 585.238C166.28 584.336 166.646 583.455 167.067 582.599C167.895 580.909 168.917 579.322 170.113 577.87L170.343 577.604C170.892 576.966 171.459 576.346 172.115 575.744C173.424 574.476 174.867 573.354 176.418 572.397C177.161 571.912 177.93 571.469 178.721 571.068C182.654 572.924 186.018 575.8 188.46 579.399C190.903 582.997 192.335 587.185 192.607 591.525C192.571 591.844 192.589 592.127 192.589 592.428Z" fill="#F6F1F7"/>
<path d="M192.589 591.561V592.429H185.788L172.079 575.762C173.389 574.494 174.832 573.371 176.383 572.415L192.572 591.543L192.589 591.561Z" fill="white"/>
<path d="M182.547 592.428H165.154L164.8 591.986C164.836 589.688 165.236 587.41 165.986 585.237C166.297 584.336 166.664 583.455 167.085 582.598C167.907 580.91 168.924 579.323 170.113 577.869L170.343 577.604L182.547 592.428Z" fill="white"/>
<path d="M184.442 592.41H182.246C182.267 587.515 183.829 582.749 186.709 578.79H187.984V580.561C185.664 584.077 184.432 588.198 184.442 592.41Z" fill="#C6BBC8"/>
<path d="M179.146 571.352L178.668 571.086L178.19 571.352C174.253 573.282 170.92 576.254 168.553 579.945C166.187 583.635 164.876 587.904 164.764 592.287V592.677H165.685V592.251C165.828 588.051 167.108 583.968 169.388 580.438C171.668 576.907 174.863 574.061 178.632 572.202C182.422 574.063 185.631 576.924 187.913 580.476C190.195 584.029 191.463 588.137 191.579 592.358V592.659H192.554V592.375C192.455 587.98 191.153 583.696 188.789 579.989C186.425 576.282 183.09 573.295 179.146 571.352Z" fill="white"/>
<path d="M192.589 592.393V592.676H191.615V592.375C191.499 588.155 190.231 584.046 187.949 580.494C185.667 576.942 182.458 574.08 178.668 572.22V571.104L179.146 571.369C183.097 573.307 186.439 576.293 188.81 580C191.18 583.707 192.488 587.994 192.589 592.393Z" fill="#C6BBC8"/>
<path d="M175.072 592.411H172.876C172.903 587.282 174.614 582.303 177.747 578.242C178.905 576.712 180.229 575.316 181.697 574.079C181.697 574.079 182.972 574.983 183.344 575.355C181.945 576.535 180.68 577.865 179.571 579.322C176.679 583.075 175.099 587.673 175.072 592.411Z" fill="#C6BBC8"/>
<path d="M184.442 592.411H182.246C182.224 587.672 180.643 583.072 177.747 579.322C176.648 577.857 175.382 576.525 173.974 575.354V573.973L175.568 574.061C177.03 575.304 178.349 576.706 179.5 578.241C182.664 582.291 184.402 587.272 184.442 592.411Z" fill="#C6BBC8"/>
<path d="M183.397 592.428C183.319 587.408 181.616 582.549 178.544 578.578C177.257 576.866 175.764 575.319 174.098 573.973L175.692 574.061C177.154 575.304 178.473 576.706 179.624 578.241C182.565 582.036 184.271 586.642 184.513 591.437L183.397 592.428Z" fill="#B3A9B5"/>
<path d="M175.072 592.411H172.876C172.877 588.217 171.645 584.115 169.334 580.615V578.844H170.662C173.511 582.796 175.053 587.539 175.072 592.411Z" fill="#C6BBC8"/>
<path d="M192.713 592.677H164.605L165.703 591.455H191.615L192.713 592.677Z" fill="#B3A9B5"/>
<path d="M173.957 592.429C173.873 587.506 172.23 582.737 169.263 578.809H170.591C173.305 582.502 174.87 586.913 175.09 591.49L173.957 592.429Z" fill="#B3A9B5"/>
<path d="M188.037 580.615C185.715 584.116 184.482 588.227 184.495 592.428L183.397 592.038C183.425 587.587 184.836 583.254 187.435 579.64L188.073 578.826L188.037 580.615Z" fill="#B3A9B5"/>
<path d="M183.397 575.355C181.993 576.53 180.728 577.861 179.624 579.322C176.73 583.08 175.15 587.685 175.126 592.429L173.974 592.11C173.998 587.366 175.579 582.762 178.473 579.003C179.647 577.387 181.049 575.949 182.635 574.735L183.45 574.079L183.397 575.355Z" fill="#B3A9B5"/>
<path d="M186.709 578.79L187.984 578.826L187.347 579.623L186.709 578.79Z" fill="#C6BBC8"/>
<path d="M181.697 574.079H183.397L182.582 574.735L181.697 574.079Z" fill="#C6BBC8"/>
<path d="M178.757 552.241V558.227C163.188 565.578 153.588 578.596 153.27 592.694H147.141C147.282 586.953 148.73 581.32 151.374 576.222C156.811 566.218 165.396 558.287 175.799 553.658L178.757 552.241Z" fill="white"/>
<path d="M210.371 592.693H204.243C204.031 585.658 201.663 578.857 197.46 573.211C192.586 566.717 186.153 561.557 178.756 558.209V552.223L181.714 553.622C199.142 561.928 210.052 576.771 210.371 592.693Z" fill="#B3A9B5"/>
<path d="M216.517 592.588V587.275C216.517 570.573 228.136 555.093 247.176 546.414C266.198 555.093 277.817 570.573 277.817 587.257V592.57L216.517 592.588Z" fill="#C6BBC8"/>
<path d="M220.254 592.623C220.095 576.435 230.013 561.433 246.113 553.498L247.141 552.985L248.186 553.481C264.321 561.256 274.239 576.258 274.08 592.641H220.254V592.623Z" fill="#F6F1F7"/>
<path d="M225.054 592.623C224.93 579.322 233.06 566.994 246.308 560.459L247.141 560.051L248.009 560.459C261.257 566.853 269.422 579.18 269.263 592.641H224.984L225.054 592.623Z" fill="#B3A9B5"/>
<path d="M265.755 592.269H228.384C228.384 592.074 228.384 591.879 228.384 591.685C228.434 588.595 228.978 585.534 229.996 582.616C230.405 581.404 230.896 580.22 231.466 579.074C232.571 576.814 233.938 574.691 235.54 572.751L235.841 572.397C236.573 571.522 237.354 570.688 238.179 569.899C239.93 568.184 241.866 566.67 243.953 565.383C244.951 564.734 245.986 564.143 247.052 563.612C258.228 569.262 265.26 579.694 265.72 591.118C265.738 591.49 265.755 591.879 265.755 592.269Z" fill="#F6F1F7"/>
<path d="M265.755 591.117V592.268H256.634L238.196 569.881C239.947 568.166 241.884 566.651 243.97 565.365L265.738 591.082L265.755 591.117Z" fill="white"/>
<path d="M252.259 592.269H228.862L228.402 591.685C228.452 588.595 228.996 585.534 230.013 582.616C230.423 581.404 230.914 580.22 231.484 579.074C232.588 576.814 233.956 574.691 235.557 572.751L235.858 572.397L252.259 592.269Z" fill="white"/>
<path d="M254.81 592.269H251.852C251.857 585.688 253.933 579.275 257.785 573.938H259.556V576.382C256.453 581.099 254.802 586.623 254.81 592.269Z" fill="#C6BBC8"/>
<path d="M247.707 563.931L247.034 563.576L246.397 563.931C241.109 566.522 236.632 570.511 233.45 575.466C230.269 580.421 228.504 586.153 228.349 592.039V592.553H229.624V592.039C229.748 580.951 236.354 570.785 247.017 565.1C257.767 570.767 264.409 581.04 264.427 592.181V592.588H265.738V592.216C265.608 586.303 263.858 580.539 260.679 575.552C257.5 570.564 253.013 566.545 247.707 563.931Z" fill="white"/>
<path d="M265.755 592.233V592.605H264.445V592.198C264.445 581.075 257.785 570.784 247.034 565.117V563.594L247.707 563.948C253.016 566.559 257.507 570.578 260.689 575.565C263.871 580.553 265.624 586.318 265.755 592.233Z" fill="#C6BBC8"/>
<path d="M242.217 592.269H239.277C239.307 585.367 241.603 578.665 245.812 573.194C247.377 571.143 249.159 569.267 251.126 567.597C251.126 567.597 252.897 568.819 253.357 569.368C251.469 570.943 249.764 572.726 248.274 574.682C244.389 579.726 242.261 585.903 242.217 592.269Z" fill="#C6BBC8"/>
<path d="M254.81 592.269H251.852C251.827 585.891 249.704 579.699 245.812 574.646C244.333 572.686 242.634 570.903 240.747 569.333V567.473L242.907 567.615C244.884 569.274 246.666 571.152 248.221 573.212C252.451 578.668 254.767 585.365 254.81 592.269Z" fill="#C6BBC8"/>
<path d="M253.34 592.269C253.22 585.52 250.935 578.988 246.822 573.636C245.075 571.343 243.059 569.267 240.818 567.455L242.978 567.597C244.951 569.26 246.733 571.137 248.292 573.193C252.247 578.283 254.541 584.467 254.863 590.905L253.34 592.269Z" fill="#B3A9B5"/>
<path d="M242.217 592.269H239.277C239.274 586.595 237.591 581.048 234.442 576.328V573.884H236.213C240.101 579.227 242.202 585.661 242.217 592.269Z" fill="#C6BBC8"/>
<path d="M265.933 592.606H228.154L229.624 590.958H264.445L265.933 592.606Z" fill="#B3A9B5"/>
<path d="M240.729 592.269C240.602 585.648 238.382 579.237 234.388 573.955H236.16C239.802 578.927 241.907 584.856 242.217 591.011L240.729 592.269Z" fill="#B3A9B5"/>
<path d="M259.645 576.4C256.488 581.116 254.804 586.664 254.81 592.34L253.287 591.862C253.314 585.855 255.208 580.006 258.706 575.124L259.574 574.026L259.645 576.4Z" fill="#B3A9B5"/>
<path d="M253.34 569.333C251.447 570.903 249.742 572.686 248.257 574.646C244.37 579.702 242.249 585.893 242.217 592.269L240.658 591.844C240.699 585.466 242.827 579.277 246.716 574.221C248.298 572.051 250.183 570.119 252.313 568.483L253.411 567.597L253.34 569.333Z" fill="#B3A9B5"/>
<path d="M257.856 573.938L259.557 573.973L258.706 575.054L257.856 573.938Z" fill="#C6BBC8"/>
<path d="M251.108 567.597H253.411L252.312 568.483L251.108 567.597Z" fill="#C6BBC8"/>
<path d="M283.963 587.292V592.694H277.835V587.292C277.738 578.794 274.858 570.563 269.634 563.859C263.711 556.268 255.985 550.277 247.158 546.431V540.675L250.116 542.039C266.942 549.708 278.632 562.478 282.511 576.789C283.46 580.209 283.948 583.742 283.963 587.292Z" fill="#B3A9B5"/>
<path d="M247.158 540.675V546.431L245.476 547.228L243.598 548.202C243.049 548.468 242.518 548.769 242.004 549.07C241.491 549.371 240.906 549.69 240.375 550.009C239.843 550.328 239.542 550.522 239.135 550.788L237.966 551.532C236.892 552.252 235.847 552.996 234.831 553.764L233.875 554.508L233.06 555.163L232.174 555.907L230.935 557.023C230.474 557.43 230.031 557.855 229.571 558.298L228.561 559.325C227.757 560.142 226.995 561 226.276 561.893C225.975 562.248 225.674 562.584 225.391 562.938L224.204 564.532L223.513 565.506C220.873 569.336 218.908 573.589 217.704 578.082C217.474 578.949 217.279 579.853 217.102 580.721C217.102 581.217 216.942 581.695 216.872 582.191C216.73 583.165 216.641 584.157 216.57 585.149C216.57 585.875 216.57 586.583 216.57 587.309V592.711H210.425V587.309C210.425 586.707 210.425 586.105 210.425 585.538C210.591 581.956 211.234 578.412 212.337 575C216.694 561.397 228.101 549.389 244.218 542.056L247.158 540.675Z" fill="white"/>
<path d="M112.71 635.042H111.24V684.812H112.71V635.042Z" fill="#E8E1EC"/>
<path d="M383.094 635.042H381.624V684.812H383.094V635.042Z" fill="#F6F1F7"/>
<path d="M384.954 597.299H109.345V599.744H384.954V597.299Z" fill="#C6BBC8"/>
<path d="M90.3756 597.299H17.6519V599.744H90.3756V597.299Z" fill="#E8E1EC"/>
<path d="M473.743 597.299H401.019V599.744H473.743V597.299Z" fill="#F6F1F7"/>
<path d="M329.305 512.885H163.879V515.33H329.305V512.885Z" fill="#C6BBC8"/>
<path d="M150.843 512.885H112.356V515.33H150.843V512.885Z" fill="#E8E1EC"/>
<path d="M382.546 512.885H342.978V515.33H382.546V512.885Z" fill="#F6F1F7"/>
<path d="M267.598 399.373V412.71L276.081 421.211V407.467L267.598 399.373Z" fill="#E8E1EC"/>
<path d="M291.667 422.362V436.779L300.151 445.281V430.474L291.667 422.362Z" fill="#E8E1EC"/>
<path d="M339.808 468.341V484.955L348.309 493.421V476.471L339.808 468.341Z" fill="#E8E1EC"/>
<path d="M315.738 445.352V460.867L324.221 469.368V453.463L315.738 445.352Z" fill="#E8E1EC"/>
<path d="M363.895 509.024L372.361 508.918V500.31L363.895 491.809V509.024Z" fill="#E8E1EC"/>
<path d="M226.737 399.373V412.71L218.253 421.211V407.467L226.737 399.373Z" fill="#E8E1EC"/>
<path d="M202.667 422.362V436.779L194.183 445.281V430.474L202.667 422.362Z" fill="#E8E1EC"/>
<path d="M154.527 468.341V484.955L146.025 493.421V476.471L154.527 468.341Z" fill="#E8E1EC"/>
<path d="M178.597 445.352V460.867L170.113 469.368V453.463L178.597 445.352Z" fill="#E8E1EC"/>
<path d="M130.439 509.024L121.956 508.918V500.31L130.439 491.809V509.024Z" fill="#E8E1EC"/>
<path d="M252.277 385.327V399.373H242.04V385.345L247.159 380.439L252.277 385.327Z" fill="#E8E1EC"/>
<path d="M109.363 542.27H105.98V542.766H109.363V542.27Z" fill="#C6BBC8"/>
<path d="M109.38 549.708H98.3281V550.204H109.38V549.708Z" fill="#C6BBC8"/>
<path d="M109.362 557.165H90.6588V557.66H109.362V557.165Z" fill="#C6BBC8"/>
<path d="M109.363 564.621H82.9901V565.117H109.363V564.621Z" fill="#C6BBC8"/>
<path d="M109.38 572.061H75.3386V572.556H109.38V572.061Z" fill="#C6BBC8"/>
<path d="M109.362 579.517H67.6692V580.013H109.362V579.517Z" fill="#C6BBC8"/>
<path d="M109.363 586.973H60.0005V587.469H109.363V586.973Z" fill="#C6BBC8"/>
<path d="M388.479 542.27H385.096V542.766H388.479V542.27Z" fill="white"/>
<path d="M396.148 549.708H385.096V550.204H396.148V549.708Z" fill="white"/>
<path d="M403.799 557.165H385.096V557.66H403.799V557.165Z" fill="white"/>
<path d="M411.468 564.621H385.096V565.117H411.468V564.621Z" fill="white"/>
<path d="M419.137 572.061H385.096V572.556H419.137V572.061Z" fill="white"/>
<path d="M426.789 579.517H385.096V580.013H426.789V579.517Z" fill="white"/>
<path d="M434.458 586.973H385.096V587.469H434.458V586.973Z" fill="white"/>
<path d="M249.461 277.446C246.362 279.278 243.794 281.887 242.012 285.015C240.229 288.143 239.292 291.681 239.295 295.281V305.908H234.76V295.281C234.757 291.247 235.928 287.299 238.129 283.918C240.33 280.538 243.468 277.87 247.158 276.241C247.953 276.59 248.722 276.992 249.461 277.446Z" fill="#F6F1F7"/>
<path d="M248.929 213.791C247.256 214.896 245.883 216.397 244.931 218.162C243.979 219.927 243.479 221.899 243.474 223.904V232.158H239.932V223.904C239.934 221.55 240.623 219.248 241.912 217.279C243.202 215.31 245.037 213.76 247.194 212.817C247.798 213.094 248.378 213.42 248.929 213.791Z" fill="#F6F1F7"/>
</svg>
